Coordinates
version=1
nRows=10
nColumns=40
inDegrees=yes

Units are S.I. units (second, meters, Newtons, ...)
If the header above contains a line with 'inDegrees', this indicates whether rotational values are in degrees (yes) or radians (no).

endheader
time	pelvis_tilt	pelvis_list	pelvis_rotation	pelvis_tx	pelvis_ty	pelvis_tz	hip_flexion_r	hip_adduction_r	hip_rotation_r	knee_angle_r	knee_angle_r_beta	ankle_angle_r	subtalar_angle_r	mtp_angle_r	hip_flexion_l	hip_adduction_l	hip_rotation_l	knee_angle_l	knee_angle_l_beta	ankle_angle_l	subtalar_angle_l	mtp_angle_l	lumbar_extension	lumbar_bending	lumbar_rotation	arm_flex_r	arm_add_r	arm_rot_r	elbow_flex_r	pro_sup_r	wrist_flex_r	wrist_dev_r	arm_flex_l	arm_add_l	arm_rot_l	elbow_flex_l	pro_sup_l	wrist_flex_l	wrist_dev_l
      8.19999999999999928946	     12.72327228814661914669	     -1.38712796099794344329	   -168.58083914585074580827	      0.30390379027740144213	      0.85539995896831244604	     -0.61309393703909853546	     45.36071154028130791858	    -19.08851177307165869479	    -12.07968710877416462779	     40.76877246766936480071	      0.71154931155724387981	      6.61740160975504210228	      0.00000000000000000000	      0.00000000000000000000	     46.86964880224433471767	     -2.05125669118156395143	     -0.81294343322498086035	     36.92868690895392802531	      0.64452717499937350887	      2.98104108427929181957	      0.00000000000000000000	      0.00000000000000000000	    -54.57861137082135627452	      8.44447394590592814723	     -8.68095746937560441836	     54.31348473925186226552	     -0.21133845399284131861	     17.20729239226761819737	      4.86229283153187008537	     15.64540595763550712149	      0.00000000000000000000	      0.00000000000000000000	     59.36287670389970827500	    -10.46787494967758469500	     76.96525131326544055810	      6.35648449044535901464	     77.66888571867420409944	      0.00000000000000000000	      0.00000000000000000000
      8.20500000000000007105	     12.80152739055804822499	     -1.33124011108149109539	   -168.68404904827048085281	      0.30361293820112006392	      0.85683231839904494542	     -0.61339031724730308515	     45.14580680812573376670	    -18.93594090014291353441	    -12.25110248920279332197	     40.23373018711650672685	      0.70221106212421724457	      6.29630401944327466879	      0.00000000000000000000	      0.00000000000000000000	     46.64369882431756764163	     -2.16312316803321413872	     -0.90248347108973681063	     36.39337117992525350019	      0.63518415299010932973	      2.68653233115681278065	      0.00000000000000000000	      0.00000000000000000000	    -54.33716748791887596326	      8.33559885407024303561	     -8.59509032364175595831	     54.08357687042300199209	     -0.22989962012575043682	     17.25741098743824508688	      4.82137011269302018235	     15.67857506002593304117	      0.00000000000000000000	      0.00000000000000000000	     59.13204780865576282167	    -10.49071852731411169657	     76.80036277091011243101	      6.43763550682111329593	     77.62687114400971211126	      0.00000000000000000000	      0.00000000000000000000
      8.21000000000000085265	     12.84011767486508048819	     -1.28132152982261993124	   -168.78091012228392742145	      0.30330505340606761511	      0.85824457890390393189	     -0.61368947216004809952	     44.88941673625020456484	    -18.78360082743787273785	    -12.44517930630925661717	     39.70089248952825755623	      0.69291128992255646146	      5.99275411090703524764	      0.00000000000000000000	      0.00000000000000000000	     46.38166120072324360990	     -2.27837495417779489770	     -1.03529204709598499079	     35.87170816530351658002	      0.62607941579908066299	      2.47407330098370126237	      0.00000000000000000000	      0.00000000000000000000	    -54.12336831759538569031	      8.23524656975857460850	     -8.52576419939646257262	     53.83109259290434067680	     -0.21281609169056883712	     17.42925871285392602772	      4.83704344201602953746	     15.62536640125155074088	      0.00000000000000000000	      0.00000000000000000000	     58.90844788591092395791	    -10.51207884110054102678	     76.82692966721472771496	      6.49417002211694338598	     77.29852118340690481091	      0.00000000000000000000	      0.00000000000000000000
      8.21499999999999985789	     12.89667684839285222154	     -1.20734853790974860921	   -168.83848444613630590538	      0.30302974680898714377	      0.85962065863379943931	     -0.61385102997575857753	     44.63951141894591501114	    -18.66410823719584399782	    -12.70698237147592024598	     39.16709654118926664523	      0.68359479309023551963	      5.62615787889845897496	      0.00000000000000000000	      0.00000000000000000000	     46.17160101619941059425	     -2.36870046455336291658	     -1.06037123240679931335	     35.38179776036559331942	      0.61752886619313529515	      2.14751972941147606377	      0.00000000000000000000	      0.00000000000000000000	    -53.87002072386885487276	      8.19472444633183805252	     -8.45483678950336425828	     53.60640354247712480174	     -0.26243771837321033802	     17.40359550248779996195	      4.80421471596939930748	     15.93162489541429494011	      0.00000000000000000000	      0.00000000000000000000	     58.68102538408267321302	    -10.48272360234645894650	     76.51424742401722767227	      6.45879221141717430044	     77.30997006138272809039	      0.00000000000000000000	      0.00000000000000000000
      8.22000000000000063949	     12.97344147128399605151	     -1.19034081642288147584	   -169.01103883683100548296	      0.30271590031943362842	      0.86085529475896238605	     -0.61432926175655244716	     44.49302474488717962231	    -18.49277112188676497340	    -12.78051819279768253068	     38.70254080013661024395	      0.67548676584982447757	      5.31461242642510267586	      0.00000000000000000000	      0.00000000000000000000	     45.95509311114770412132	     -2.51227265937385801919	     -1.24381190085815229729	     34.89853170023818051959	      0.60909428228077100442	      1.90905805420186802657	      0.00000000000000000000	      0.00000000000000000000	    -53.59631855439789660522	      7.99153054994973732761	     -8.35610253255302026787	     53.31382582912902989847	     -0.28594810134546477798	     17.59545332705230791248	      4.85383517509514295085	     15.37492039276007460558	      0.00000000000000000000	      0.00000000000000000000	     58.45629095392675367293	    -10.50015031278839572337	     76.33268835530647322685	      6.53345145016233086466	     77.52374363631847131728	      0.00000000000000000000	      0.00000000000000000000
      8.22499999999999964473	     13.03934857452806816980	     -1.16033637754435692280	   -169.16669907103965897477	      0.30241325685574088622	      0.86213554553491189569	     -0.61465319921415839666	     44.31620328491104743307	    -18.33649146237060634235	    -12.91018680857378342353	     38.21814690287637006350	      0.66703249746606618764	      4.97086754653131812631	      0.00000000000000000000	      0.00000000000000000000	     45.72995169830497275143	     -2.62972560282541412136	     -1.34752348042470093681	     34.39201517747505221223	      0.60025390124280164628	      1.64708824886556426392	      0.00000000000000000000	      0.00000000000000000000	    -53.33028557488329113312	      7.83023984383339310966	     -8.28449633856330081016	     53.08691001633872019738	     -0.26380814379224926114	     17.43031032554224069031	      4.83614440712646054266	     15.69231313345884970545	      0.00000000000000000000	      0.00000000000000000000	     58.15173165006589073300	    -10.37017391555147582949	     75.54567012971388351161	      6.34987704203999836494	     76.96083112356878075389	      0.00000000000000000000	      0.00000000000000000000
      8.23000000000000042633	     13.05667409055597794065	     -0.96711940086373870962	   -169.25442779019641648119	      0.30207067122820541183	      0.86340333820622916505	     -0.61474764046819241337	     44.02918921214089920113	    -18.10038443391527351878	    -13.24717898045205011215	     37.71650558318590640283	      0.65827720477341811200	      4.69671779237641473514	      0.00000000000000000000	      0.00000000000000000000	     45.54530282807362340236	     -2.83149117435753128191	     -1.29494137408931120348	     33.99959044632985438739	      0.59340479761806441683	      1.42516287770149818748	      0.00000000000000000000	      0.00000000000000000000	    -53.07275857243165262389	      7.85886368083352593317	     -8.06612144548249609954	     52.78987962042833714804	     -0.36195790108043823796	     17.23199116228292382402	      4.95189886987075844615	     15.58496103579934199956	      0.00000000000000000000	      0.00000000000000000000	     57.95311612900356124101	    -10.40510082300225036533	     76.38999404645663560132	      6.48817711834458688003	     77.68850756398009593795	      0.00000000000000000000	      0.00000000000000000000
      8.23499999999999943157	     12.97047154780583433364	     -0.96337427999258340439	   -169.76966927556171071956	      0.30196134743643737730	      0.86482055739072716261	     -0.61545953108654205543	     43.79835347327458805466	    -17.66446038568079046627	    -12.99427743507340871076	     37.17526663184280977248	      0.64883080303243967357	      4.26856049080108146399	      0.00000000000000000000	      0.00000000000000000000	     45.16404144461874636818	     -3.22402718913634034337	     -1.73895468283391640973	     33.57901998491448125606	      0.58606445832973430576	      1.24326899552052672071	      0.00000000000000000000	      0.00000000000000000000	    -52.98241839189093838058	      7.43017489065118219571	     -7.78010798093216404681	     52.61831451423427097325	     -0.38650963084954992333	     17.09044171975045145473	      4.96087426814608178915	     15.45384876462612844250	      0.00000000000000000000	      0.00000000000000000000	     57.78242411374687037551	    -10.44600731731216392006	     76.67616562338527330667	      6.52126493359732606336	     77.70642238192782258466	      0.00000000000000000000	      0.00000000000000000000
      8.24000000000000021316	     13.11659597312986669237	     -0.97104750526648331288	   -169.75138813795078363000	      0.30142741431772523963	      0.86583297888856258773	     -0.61587417478714023833	     43.68979552093508544885	    -17.68811898465505549893	    -13.26898353861769663808	     36.80838135806327215960	      0.64242744702790599565	      4.03017097914799027336	      0.00000000000000000000	      0.00000000000000000000	     45.01686379926937320306	     -3.20145840585462515548	     -1.77274965349948909754	     33.08108653417019695553	      0.57737388015842960876	      0.98999671007141676338	      0.00000000000000000000	      0.00000000000000000000	    -52.57424204520588517653	      7.32713450067129201670	     -7.84901225712171157767	     52.23577846885550002298	     -0.40326706050984983953	     16.80638232806698795230	      4.95126644702866958170	     16.22482478023884411300	      0.00000000000000000000	      0.00000000000000000000	     57.46969307763082923657	    -10.47338455958288427894	     76.74894992242228397572	      6.49703252774078876541	     77.75196958623519094544	      0.00000000000000000000	      0.00000000000000000000
      8.24499999999999921840	     13.10171678814258555690	     -0.95200718832154507254	   -169.80801571524432347360	      0.30097214705542257862	      0.86703067371924680273	     -0.61583939315296787331	     43.40390799629074791710	    -17.60902286807186811757	    -13.51740340876428092542	     36.35706890163847049280	      0.63455055870802967721	      3.80054490121181309803	      0.00000000000000000000	      0.00000000000000000000	     44.74889572990884545334	     -3.24127760394707475911	     -1.82119099091090830278	     32.67749679638576765228	      0.57032991040683078676	      0.78152631792127269517	      0.00000000000000000000	      0.00000000000000000000	    -52.32852880435906683942	      7.26222666608516309594	     -7.77341189013759770177	     51.96230635951840781672	     -0.46105895040439637267	     16.31696461296114719630	      4.80433403529236446872	     17.53183972861561557011	      0.00000000000000000000	      0.00000000000000000000	     57.19591029293465567207	    -10.45281219144221473982	     76.80684284550912366285	      6.61201703714680899537	     77.25960495932457661183	      0.00000000000000000000	      0.00000000000000000000
